<svg width="221" height="221" viewBox="0 0 221 221" fill="none" xmlns="http://www.w3.org/2000/svg">
<circle cx="110.5" cy="110.5" r="110.5" fill="#F0F0F0"/>
<g clip-path="url(#clip0)">
<path d="M118.46 109.274L173.119 92.7755" stroke="#BDBDBD" stroke-width="4"/>
<path d="M118.133 110.881L57.1678 61.3841" stroke="#BDBDBD" stroke-width="4"/>
<path d="M114.38 110.847L57.62 162.407" stroke="#BDBDBD" stroke-width="4"/>
<path d="M191.236 90.9272C191.236 98.0082 185.332 103.732 178.069 103.732C170.805 103.732 164.902 98.0082 164.902 90.9272C164.902 83.846 170.805 78.1222 178.069 78.1222C185.332 78.1222 191.236 83.846 191.236 90.9272Z" fill="white" stroke="#BDBDBD" stroke-width="2"/>
<path d="M69.6358 161.723C69.6358 168.052 64.4079 173.169 57.9779 173.169C51.5479 173.169 46.32 168.052 46.32 161.723C46.32 155.394 51.5479 150.278 57.9779 150.278C64.4079 150.278 69.6358 155.394 69.6358 161.723Z" fill="white" stroke="#BDBDBD" stroke-width="2"/>
<path d="M70.3345 61.3172C70.3345 68.4031 64.5427 74.122 57.4306 74.122C50.3185 74.122 44.5267 68.4031 44.5267 61.3172C44.5267 54.231 50.3185 48.5122 57.4306 48.5122C64.5427 48.5122 70.3345 54.231 70.3345 61.3172Z" fill="white" stroke="#BDBDBD" stroke-width="2"/>
<path d="M114.92 129.66C125.966 129.66 134.92 120.706 134.92 109.66C134.92 98.6141 125.966 89.66 114.92 89.66C103.875 89.66 94.92 98.6141 94.92 109.66C94.92 120.706 103.875 129.66 114.92 129.66Z" fill="#999999"/>
</g>
<defs>
<clipPath id="clip0">
<rect width="148" height="126" fill="white" transform="translate(44 48)"/>
</clipPath>
</defs>
</svg>
